<?xml version="1.0" encoding="UTF-8"?>
<!-- Generator: https://ezgif.com/png-to-svg -->
<svg version="1.1" xmlns="http://www.w3.org/2000/svg" width="256" height="256">
<path d="M0 0 C26.07 0 52.14 0 79 0 C79 13.2 79 26.4 79 40 C92.2 40 105.4 40 119 40 C119 26.8 119 13.6 119 0 C145.07 0 171.14 0 198 0 C198 52.14 198 104.28 198 158 C184.8 158 171.6 158 158 158 C158 171.2 158 184.4 158 198 C119.06 198 80.12 198 40 198 C40 184.8 40 171.6 40 158 C26.8 158 13.6 158 0 158 C0 105.86 0 53.72 0 0 Z " fill="#7F433B" transform="translate(29,29)"/>
<path d="M0 0 C26.07 0 52.14 0 79 0 C79 13.2 79 26.4 79 40 C92.2 40 105.4 40 119 40 C119 52.87 119 65.74 119 79 C105.8 79 92.6 79 79 79 C79 92.2 79 105.4 79 119 C66.13 119 53.26 119 40 119 C40 131.87 40 144.74 40 158 C26.8 158 13.6 158 0 158 C0 105.86 0 53.72 0 0 Z " fill="#968F99" transform="translate(29,29)"/>
<path d="M0 0 C26.07 0 52.14 0 79 0 C79 52.14 79 104.28 79 158 C65.8 158 52.6 158 39 158 C39 119.06 39 80.12 39 40 C26.13 40 13.26 40 0 40 C0 26.8 0 13.6 0 0 Z " fill="#807E81" transform="translate(148,29)"/>
<path d="M0 0 C38.94 0 77.88 0 118 0 C118 13.2 118 26.4 118 40 C79.06 40 40.12 40 0 40 C0 26.8 0 13.6 0 0 Z " fill="#6D6A6F" transform="translate(69,187)"/>
<path d="M0 0 C26.07 0 52.14 0 79 0 C79 12.87 79 25.74 79 39 C65.8 39 52.6 39 39 39 C39 52.2 39 65.4 39 79 C26.13 79 13.26 79 0 79 C0 52.93 0 26.86 0 0 Z " fill="#B9806A" transform="translate(69,69)"/>
<path d="M0 0 C12.87 0 25.74 0 39 0 C39 38.94 39 77.88 39 118 C26.13 118 13.26 118 0 118 C0 79.06 0 40.12 0 0 Z " fill="#A9664A" transform="translate(148,69)"/>
<path d="M0 0 C13.2 0 26.4 0 40 0 C40 12.87 40 25.74 40 39 C26.8 39 13.6 39 0 39 C0 26.13 0 13.26 0 0 Z " fill="#818082" transform="translate(108,69)"/>
<path d="M0 0 C12.87 0 25.74 0 39 0 C39 12.87 39 25.74 39 39 C26.13 39 13.26 39 0 39 C0 26.13 0 13.26 0 0 Z " fill="#A46147" transform="translate(69,148)"/>
</svg>
